Coordinates
version=1
nRows=14
nColumns=40
inDegrees=yes

Units are S.I. units (second, meters, Newtons, ...)
Angles are in degrees.

endheader
time	pelvis_tilt	pelvis_list	pelvis_rotation	pelvis_tx	pelvis_ty	pelvis_tz	hip_flexion_r	hip_adduction_r	hip_rotation_r	knee_angle_r	knee_angle_r_beta	ankle_angle_r	subtalar_angle_r	mtp_angle_r	hip_flexion_l	hip_adduction_l	hip_rotation_l	knee_angle_l	knee_angle_l_beta	ankle_angle_l	subtalar_angle_l	mtp_angle_l	lumbar_extension	lumbar_bending	lumbar_rotation	arm_flex_r	arm_add_r	arm_rot_r	elbow_flex_r	pro_sup_r	wrist_flex_r	wrist_dev_r	arm_flex_l	arm_add_l	arm_rot_l	elbow_flex_l	pro_sup_l	wrist_flex_l	wrist_dev_l
      1.64000000	     -3.17114281	      5.02984627	     -1.64924714	     -0.32478350	      0.94919275	      1.39581018	     28.99425415	    -14.18464994	    -14.05114420	    -27.91095894	     -0.48713813	      3.16482686	     -5.26981914	      8.06679514	      1.57685417	     -5.76409897	     14.89612944	    -11.31702249	     -0.19751930	      6.27001583	      3.95697787	    -10.00945147	     -4.97087505	     -4.90443729	     -1.24635638	      5.48145171	     -9.54790593	    -13.28806699	     22.23355912	     89.95437384	      0.00000000	      0.00000000	     11.50580093	     15.46828415	     -4.63018522	     24.50677787	     89.95437384	      0.00000000	      0.00000000
      1.65000000	     -3.30508864	      4.95976099	     -1.60375485	     -0.31814509	      0.94836679	      1.39632900	     29.31960758	    -13.96046623	    -13.85522896	    -26.04047903	     -0.45449210	      3.19538200	     -3.79103492	      7.91085868	      1.22124558	     -5.67633442	     14.83019272	    -11.24661164	     -0.19629040	      6.56977972	      3.94762616	    -10.04515305	     -4.88620044	     -4.71349851	     -1.33391738	      5.41602780	     -9.55784001	    -13.53459286	     22.00394399	     89.95437384	      0.00000000	      0.00000000	     11.66826397	     15.50498475	     -4.54208627	     24.80058326	     89.95437384	      0.00000000	      0.00000000
      1.66000000	     -3.39910301	      4.87981335	     -1.50117149	     -0.31151070	      0.94759479	      1.39689813	     29.53799451	    -13.76114314	    -13.74973356	    -24.18362908	     -0.42208395	      3.27683987	     -2.11605337	      7.68597641	      0.83995613	     -5.56489787	     14.75929258	    -11.19055808	     -0.19531208	      6.80031632	      3.84837787	    -10.09390685	     -4.88961224	     -4.52193417	     -1.45190174	      5.32945009	     -9.56310211	    -13.80275217	     21.75405507	     89.95437384	      0.00000000	      0.00000000	     11.82105221	     15.52396565	     -4.45599697	     25.12768210	     89.95437384	      0.00000000	      0.00000000
      1.67000000	     -3.50868985	      4.81501870	     -1.36935775	     -0.30473685	      0.94677605	      1.39740966	     29.77102845	    -13.62889654	    -13.86099683	    -22.46787248	     -0.39213835	      3.42070446	     -0.60698566	      7.44050826	      0.47268282	     -5.48107305	     14.66467581	    -11.14656819	     -0.19454432	      7.06677562	      3.80603922	    -10.18904919	     -4.83256200	     -4.32670170	     -1.60838423	      5.26371064	     -9.57171800	    -14.08029156	     21.54920375	     89.95437384	      0.00000000	      0.00000000	     12.04131408	     15.46596762	     -4.30376612	     25.20357494	     89.95437384	      0.00000000	      0.00000000
      1.68000000	     -3.37868581	      4.60424715	     -1.10926331	     -0.29757526	      0.94634335	      1.39778991	     29.58290801	    -13.52040836	    -14.54184596	    -20.77303399	     -0.36255784	      3.57923991	      1.61785870	      6.66715233	     -0.17432748	     -5.21741574	     14.53333613	    -11.15451652	     -0.19468304	      7.37483718	      3.68647943	    -10.45283330	     -5.03970861	     -3.96306536	     -1.86491301	      5.22011708	     -9.58716048	    -14.63065519	     21.25803973	     89.95437384	      0.00000000	      0.00000000	     12.13664233	     15.36175803	     -3.88441351	     25.49575098	     89.95437384	      0.00000000	      0.00000000
      1.69000000	     -3.26295378	      4.31157578	     -0.88102404	     -0.29008802	      0.94588688	      1.39856996	     29.39360594	    -13.25713931	    -15.24245705	    -19.18227028	     -0.33479377	      3.58056151	      3.43555256	      6.01225940	     -0.82083130	     -4.82404787	     14.53201537	    -11.13568671	     -0.19435440	      7.59572062	      3.52816291	    -10.71161857	     -5.18782906	     -3.52180108	     -2.06803450	      5.09922486	     -9.59298130	    -15.11465801	     21.01962399	     89.95437384	      0.00000000	      0.00000000	     12.26931864	     15.23409364	     -3.60755693	     25.53483912	     89.95437384	      0.00000000	      0.00000000
      1.70000000	     -3.45906761	      4.31194405	     -0.74706742	     -0.28301283	      0.94476895	      1.39943318	     29.68242274	    -13.14769497	    -15.31532347	    -17.73900782	     -0.30960409	      3.67776565	      4.42050371	      5.78805054	     -1.14485437	     -4.78415626	     14.46324004	    -11.02080945	     -0.19234941	      7.72163204	      3.38941623	    -10.81280751	     -4.98272069	     -3.41829753	     -2.24196156	      5.00407751	     -9.60373398	    -15.25181186	     20.77279179	     89.95437384	      0.00000000	      0.00000000	     12.25486348	     15.23516261	     -3.54208352	     25.74281862	     89.95437384	      0.00000000	      0.00000000
      1.71000000	     -3.48799219	      4.11270455	     -0.51349679	     -0.27575321	      0.94395916	      1.40030809	     29.67815901	    -12.94140009	    -15.93240454	    -16.40041708	     -0.28624128	      3.60030741	      5.67582337	      5.52911747	     -1.59693178	     -4.49723081	     14.35679020	    -11.05530311	     -0.19295144	      8.00900615	      3.33197371	    -10.99764549	     -4.99160947	     -3.07509249	     -2.46717607	      4.90234449	     -9.62608744	    -15.63129609	     20.59382078	     89.95437384	      0.00000000	      0.00000000	     12.32664900	     15.12288961	     -3.34154090	     25.75801935	     89.95437384	      0.00000000	      0.00000000
      1.72000000	     -3.09052991	      3.75683977	     -0.27458209	     -0.26756499	      0.94370584	      1.40144069	     29.10945092	    -12.72566821	    -17.55880595	    -15.12754863	     -0.26402553	      1.31981641	      7.31151983	     -7.75451218	     -2.60616596	     -3.89708530	     15.11510099	    -10.98831065	     -0.19178220	      7.46508321	      2.35496758	    -14.41937857	     -5.38666132	     -2.56833854	     -2.71350511	      4.76458187	     -9.68360024	    -15.90023576	     20.40546556	     89.95437384	      0.00000000	      0.00000000	     12.31802651	     14.96678839	     -3.02425851	     25.82890656	     89.95437384	      0.00000000	      0.00000000
      1.73000000	     -3.26393695	      3.83121138	     -0.17902529	     -0.26019375	      0.94251917	      1.40263213	     29.55899792	    -12.75564117	    -17.92052181	    -14.63391767	     -0.25541005	      1.47283209	      7.30528925	     -7.73505562	     -2.96089351	     -3.90736067	     15.34873735	    -10.90303976	     -0.19029394	      7.68337111	      2.38532962	    -14.38610537	     -5.16541669	     -2.55692573	     -2.82181976	      4.59513841	     -9.70902730	    -15.95709349	     20.26742009	     89.95437384	      0.00000000	      0.00000000	     12.25873595	     14.92543577	     -3.01053780	     25.84837570	     89.95437384	      0.00000000	      0.00000000
      1.74000000	     -3.36016223	      3.71739225	     -0.03330937	     -0.25235440	      0.94150380	      1.40401349	     29.68931872	    -12.60092617	    -18.50168226	    -14.02224537	     -0.24473435	      1.57988041	      7.49606836	     -7.73401211	     -3.46574362	     -3.69786614	     15.35996338	    -10.74802875	     -0.18758849	      7.88574877	      2.37240848	    -14.38867483	     -5.01055345	     -2.34113642	     -2.93501638	      4.41356492	     -9.74536826	    -16.22134964	     20.03751240	     89.95437384	      0.00000000	      0.00000000	     12.16445702	     14.82540418	     -2.93152190	     25.87016511	     89.95437384	      0.00000000	      0.00000000
      1.75000000	     -2.60370148	      3.07296763	      0.36521613	     -0.24363305	      0.94214956	      1.40541687	     28.46020835	    -12.10321377	    -20.41668339	    -13.29157240	     -0.23198170	      1.60118625	      8.32220408	     -7.79830264	     -5.01924710	     -2.82102804	     15.55906775	    -10.45668228	     -0.18250353	      7.82732833	      1.72582996	    -14.52541831	     -5.82019574	     -1.50073800	     -3.32899643	      4.45027548	     -9.64286252	    -17.65849007	     19.77529960	     89.95437384	      0.00000000	      0.00000000	     12.20868510	     14.51882930	     -2.39964378	     25.65973064	     89.95437384	      0.00000000	      0.00000000
      1.76000000	     -2.73378576	      3.13431473	      0.50061300	     -0.23568723	      0.94098440	      1.40717468	     28.76817923	    -12.14529695	    -20.57616725	    -13.38870268	     -0.23367694	      1.62855761	      8.04366565	     -7.71453369	     -5.36403509	     -2.73454921	     15.71272202	    -10.59567439	     -0.18492940	      7.89230752	      1.71658583	    -14.38892786	     -5.59466946	     -1.52360382	     -3.43976579	      4.14831410	     -9.64492328	    -17.64943520	     19.76505114	     89.95437384	      0.00000000	      0.00000000	     12.02307064	     14.48345463	     -2.39899060	     25.70716017	     89.95437384	      0.00000000	      0.00000000
      1.77000000	     -2.42854643	      2.78015841	      0.62764962	     -0.22678713	      0.94057527	      1.40899732	     28.55690175	    -11.90290653	    -22.00379224	    -13.98488896	     -0.24408236	      1.82521568	      7.16544963	     -7.69292951	     -6.55058704	     -2.22302717	     16.12162362	    -10.05343769	     -0.17546559	      7.98407615	      1.22472234	    -14.42773364	     -5.77338340	     -1.02491704	     -3.58390753	      4.06946599	     -9.71246574	    -18.00970097	     19.40036086	     89.95437384	      0.00000000	      0.00000000	     11.83802088	     14.28836531	     -2.31062397	     25.51193566	     89.95437384	      0.00000000	      0.00000000
